<svg width="80" height="32" viewBox="0 0 80 32" fill="none" xmlns="http://www.w3.org/2000/svg">
<path d="M9.77355 20.5315C7.84439 20.5315 5.95855 19.9594 4.35451 18.8876C2.75047 17.8158 1.50028 16.2925 0.762019 14.5102C0.0237607 12.7279 -0.169406 10.7666 0.206955 8.87455C0.583316 6.98246 1.5123 5.24446 2.87643 3.88033C4.24055 2.51621 5.97854 1.58722 7.87064 1.21086C9.76273 0.834501 11.7239 1.02767 13.5062 1.76593C15.2886 2.50418 16.8119 3.75438 17.8837 5.35842C18.9555 6.96246 19.5276 8.8483 19.5276 10.7775C19.5276 11.398 19.281 11.9932 18.8422 12.432C18.4034 12.8708 17.8083 13.1174 17.1877 13.1174C16.5671 13.1174 15.9719 12.8708 15.5331 12.432C15.0943 11.9932 14.8478 11.398 14.8478 10.7775C14.8478 9.77387 14.5502 8.79282 13.9926 7.95837C13.4351 7.12392 12.6426 6.47355 11.7154 6.08949C10.7882 5.70543 9.76792 5.60495 8.78362 5.80074C7.79931 5.99653 6.89517 6.47979 6.18553 7.18944C5.47589 7.89908 4.99262 8.80323 4.79683 9.78753C4.60104 10.7718 4.70153 11.7921 5.08558 12.7193C5.46964 13.6465 6.12002 14.439 6.95447 14.9965C7.78892 15.5541 8.76997 15.8517 9.77355 15.8517C10.3941 15.8517 10.9893 16.0982 11.4281 16.537C11.8669 16.9758 12.1134 17.571 12.1134 18.1916C12.1134 18.8122 11.8669 19.4073 11.4281 19.8461C10.9893 20.285 10.3941 20.5315 9.77355 20.5315Z" fill="#2B1E34"/>
<path d="M9.77407 31.3147C7.18768 31.3183 4.70562 30.2952 2.873 28.4701C1.04039 26.645 0.00708356 24.1672 0 21.5808C0 20.9602 0.246517 20.365 0.685332 19.9262C1.12415 19.4874 1.71932 19.2409 2.33989 19.2409C2.96047 19.2409 3.55564 19.4874 3.99446 19.9262C4.43327 20.365 4.67979 20.9602 4.67979 21.5808C4.67979 22.9265 5.21439 24.2172 6.16599 25.1688C7.11759 26.1204 8.40824 26.655 9.75401 26.655C11.0998 26.655 12.3904 26.1204 13.342 25.1688C14.2936 24.2172 14.8282 22.9265 14.8282 21.5808C14.8282 20.9602 15.0748 20.365 15.5136 19.9262C15.9524 19.4874 16.5476 19.2409 17.1681 19.2409C17.7887 19.2409 18.3839 19.4874 18.8227 19.9262C19.2615 20.365 19.508 20.9602 19.508 21.5808C19.4992 24.1597 18.4708 26.6304 16.6473 28.454C14.8237 30.2776 12.353 31.3059 9.77407 31.3147Z" fill="#2B1E34"/>
<path d="M25.6524 31.3152C25.0668 31.3481 24.492 31.1479 24.0535 30.7583C23.6151 30.3687 23.3487 29.8214 23.3125 29.236V3.10277C23.3743 2.52532 23.6475 1.99112 24.0794 1.60294C24.5114 1.21476 25.0716 1 25.6524 1C26.2331 1 26.7934 1.21476 27.2253 1.60294C27.6573 1.99112 27.9305 2.52532 27.9923 3.10277V29.2561C27.9511 29.8379 27.6825 30.3801 27.2446 30.7655C26.8067 31.1508 26.2347 31.3483 25.6524 31.3152Z" fill="#2B1E34"/>
<path d="M48.9442 8.83854C48.3236 8.83854 47.7284 9.08506 47.2896 9.52387C46.8508 9.96269 46.6043 10.5579 46.6043 11.1784V21.5809C46.6043 22.9267 46.0697 24.2174 45.1181 25.169C44.1665 26.1206 42.8758 26.6552 41.5301 26.6552C40.1843 26.6552 38.8936 26.1206 37.942 25.169C36.9904 24.2174 36.4558 22.9267 36.4558 21.5809V11.1784C36.4558 10.5579 36.2093 9.96269 35.7705 9.52387C35.3317 9.08506 34.7365 8.83854 34.1159 8.83854C33.4954 8.83854 32.9002 9.08506 32.4614 9.52387C32.0226 9.96269 31.776 10.5579 31.776 11.1784V21.5809C31.7831 24.1638 32.8137 26.6386 34.6419 28.4631C36.4702 30.2877 38.9471 31.3131 41.5301 31.3149C43.3814 31.3165 45.194 30.785 46.7514 29.7839C46.9426 30.2975 47.308 30.7276 47.7838 30.9994C48.2597 31.2711 48.8158 31.3672 49.3553 31.271C49.8947 31.1747 50.3833 30.8921 50.7358 30.4725C51.0883 30.053 51.2823 29.523 51.2841 28.975V11.1784C51.2841 10.5579 51.0375 9.96269 50.5987 9.52387C50.1599 9.08506 49.5647 8.83854 48.9442 8.83854Z" fill="#2B1E34"/>
<path d="M74.6976 9.0654C74.1362 8.79954 73.4924 8.76706 72.9072 8.97509C72.3219 9.18312 71.843 9.61468 71.5755 10.1752L65.211 23.546L58.8398 10.1752C58.7149 9.88704 58.5333 9.62697 58.3058 9.41048C58.0784 9.194 57.8096 9.02552 57.5156 8.91509C57.2217 8.80465 56.9085 8.75452 56.5947 8.76768C56.281 8.78084 55.9731 8.85702 55.6894 8.99169C55.4057 9.12635 55.152 9.31674 54.9434 9.55151C54.7349 9.78629 54.5757 10.0606 54.4754 10.3582C54.3751 10.6558 54.3357 10.9705 54.3597 11.2837C54.3836 11.5968 54.4703 11.9019 54.6146 12.1808L63.0984 29.9774L63.1652 30.091L63.2254 30.2047C63.2891 30.3059 63.3606 30.402 63.4393 30.4921V30.5323C63.5314 30.6323 63.632 30.724 63.7402 30.8064C63.7675 30.8287 63.7966 30.8488 63.8271 30.8665C63.9216 30.9377 64.0223 31.0003 64.1279 31.0537H64.1747C64.312 31.1188 64.4553 31.1703 64.6026 31.2075H64.7096C64.8549 31.2366 65.0026 31.2523 65.1508 31.2543C65.299 31.2519 65.4466 31.2363 65.592 31.2075H65.6923C65.8418 31.1703 65.9873 31.1188 66.1269 31.0537H66.1737C66.2813 31.0002 66.3842 30.9376 66.4812 30.8665L66.5614 30.8064C66.6731 30.7258 66.7761 30.6339 66.8689 30.5323V30.4921C66.9476 30.4036 67.017 30.3073 67.0762 30.2047L67.143 30.091L67.2099 29.9774L75.687 12.1607C75.9534 11.6168 75.9992 10.991 75.8148 10.4141C75.6304 9.83719 75.2301 9.35394 74.6976 9.0654Z" fill="#2B1E34"/>
<path d="M77.4037 5.70322C78.696 5.70322 79.7436 4.65562 79.7436 3.36333C79.7436 2.07104 78.696 1.02344 77.4037 1.02344C76.1114 1.02344 75.0638 2.07104 75.0638 3.36333C75.0638 4.65562 76.1114 5.70322 77.4037 5.70322Z" fill="#9E30F4"/>
</svg>
